<svg width="2632" height="564" viewBox="0 0 2632 564" fill="none" xmlns="http://www.w3.org/2000/svg">
<circle cx="281.721" cy="281.722" r="224.024" transform="rotate(-15 281.721 281.722)" stroke="#1A090D" stroke-width="12"/>
<path d="M377.979 171.717L377.979 171.717C381.88 171.657 385.508 173.777 386.904 177.27C387.302 178.816 386.966 180.12 386.226 181.069C385.463 182.047 384.183 182.757 382.54 182.875C378.602 183.018 374.918 180.893 373.385 177.341C372.949 175.719 373.313 174.391 374.086 173.447C374.893 172.463 376.254 171.77 377.979 171.717ZM365.724 178.753L365.736 178.788L365.749 178.822C368.558 186.224 376.534 190.495 384.091 189.991H384.11L384.169 189.986C387.581 189.719 390.701 188.153 392.69 185.687C394.708 183.187 395.503 179.821 394.303 176.201L394.295 176.177L394.286 176.153C391.623 168.96 383.937 164.599 376.604 164.787V164.787L376.596 164.787C373.01 164.898 369.696 166.434 367.561 168.944C365.397 171.489 364.5 174.98 365.724 178.753Z" fill="#1A090D" stroke="#1A090D" stroke-width="3"/>
<path d="M368.993 138.532L369.009 138.533L369.026 138.534C372.794 138.732 376.276 140.674 377.723 143.936C377.963 144.738 377.857 145.474 377.408 146.155C376.246 147.327 374.72 147.919 373.011 147.855L372.992 147.854L372.974 147.854C369.16 147.803 365.611 145.954 364.095 142.678C363.875 141.264 364.34 140.267 365.113 139.599C365.971 138.858 367.353 138.41 368.993 138.532ZM356.358 143.629L356.375 143.69L356.398 143.749C359.174 150.996 367.119 154.453 374.093 154.518C377.036 154.586 380.246 153.67 382.528 151.801C384.895 149.862 386.244 146.881 385.164 143.208L385.142 143.135L385.114 143.065C382.344 136.269 374.909 132.49 368.124 132.189C365.071 132.005 361.678 132.858 359.245 134.737C358.011 135.689 356.992 136.932 356.434 138.465C355.873 140.011 355.815 141.754 356.358 143.629Z" fill="#1A090D" stroke="#1A090D" stroke-width="3"/>
<path d="M160.535 188.596L160.536 188.595C162.169 187.694 163.829 187.602 165.132 188.092C166.391 188.566 167.452 189.632 167.897 191.369C168.444 195.502 166.035 199.636 162.282 201.724C160.675 202.577 159.026 202.669 157.729 202.188C156.48 201.725 155.434 200.69 154.995 198.982C154.462 194.776 156.754 190.676 160.535 188.596ZM147.65 201.852L147.655 201.887L147.662 201.922C148.469 206.057 151.088 208.789 154.39 209.972C157.641 211.136 161.463 210.773 164.777 208.982C171.889 205.205 176.92 196.877 175.516 188.567L175.512 188.546L175.508 188.525C174.696 184.433 172.034 181.731 168.726 180.563C165.465 179.412 161.633 179.762 158.349 181.568C151.254 185.411 146.442 193.59 147.65 201.852Z" fill="#1A090D" stroke="#1A090D" stroke-width="3"/>
<path d="M239.404 125.102C240.231 122.49 242.531 120.643 245.365 119.714L246.493 119.409C248.245 118.937 250.101 118.937 251.601 119.457C252.986 119.937 254.056 120.844 254.584 122.295C254.376 125.668 251.35 128.087 247.561 129.046L247.561 129.045L247.547 129.049C245.734 129.526 243.888 129.517 242.401 128.994C241.026 128.511 239.941 127.592 239.369 126.104C239.374 125.78 239.388 125.448 239.404 125.102ZM248.956 135.712L248.956 135.712L248.964 135.71C252.723 134.745 256.299 132.872 259.134 130.127C261.673 127.704 263.081 124.392 262.812 120.848L262.803 120.729L262.775 120.613C261.828 116.651 258.849 114.363 255.52 113.294C252.229 112.237 248.441 112.302 245.361 113.096C242.046 113.869 238.475 115.476 235.744 117.893C232.988 120.332 231.009 123.678 231.205 127.825L231.21 127.944L231.234 128.06C232.104 132.247 235.154 134.57 238.579 135.612C241.958 136.639 245.85 136.49 248.956 135.712Z" fill="#1A090D" stroke="#1A090D" stroke-width="3"/>
<path d="M362.266 146.41L364.268 146.36L363.657 144.453C363.275 143.26 362.904 142.079 362.533 140.883L362.201 139.814L361.081 139.828C348.084 139.992 335.109 140.833 322.194 142.339C269.654 148.454 218.379 163.892 170.593 186.309L169.537 186.805L169.757 187.951C170.051 189.479 170.369 190.994 170.709 192.509L171.125 194.361L172.831 193.528C185.398 187.389 198.368 181.976 211.477 177.069L211.478 177.069C259.64 159.031 310.816 147.708 362.266 146.41Z" fill="#1A090D" stroke="#1A090D" stroke-width="3"/>
<path d="M236.992 130.061L236.796 128.583L238.074 128.399C237.901 127.199 237.739 125.985 237.576 124.763L237.349 123.063L235.695 123.514C220.04 127.78 204.54 132.611 189.377 138.557L189.377 138.557C150.88 153.658 109.212 175.61 82.2637 208.64C83.2179 199.617 85.1807 190.763 88.0502 182.125L85.3742 180.827C80.2868 188.546 76.1815 196.244 72.9708 204.991L75.7691 206.071C76.8088 203.505 77.9118 201.022 79.1123 198.601C77.6145 205.797 76.8924 213.166 76.556 220.361L76.3206 225.395L79.2706 221.309C85.0244 213.338 91.7893 206.098 99.094 199.44L99.0943 199.44C137.183 164.702 187.604 143.383 236.992 130.061Z" fill="#1A090D" stroke="#1A090D" stroke-width="3"/>
<mask id="path-8-outside-1_4975_141" maskUnits="userSpaceOnUse" x="58" y="171.977" width="317" height="136" fill="black">
<rect fill="white" x="58" y="171.977" width="317" height="136"/>
<path d="M61.003 300.281C60.7704 278.6 74.0534 259.838 88.197 244.555C90.5117 258.431 93.6521 272.028 97.7812 285.485C117.671 266.538 141.085 251.336 165.243 238.437C169.977 253.546 175.537 268.446 181.806 282.996C206.185 269.934 231.53 258.617 257.363 248.754C260.992 247.37 264.633 246.02 268.285 244.694C262.609 230.388 257.351 215.907 252.629 201.251C290.256 188.724 329.5 179.419 369.07 175.977C369.524 177.349 369.989 178.722 370.466 180.082C332.746 183.781 295.456 192.516 259.457 204.241C264.295 218.908 269.669 233.4 275.45 247.73C252.838 255.86 230.599 265.038 208.919 275.401C198.997 280.147 189.192 285.125 179.538 290.406C173.152 275.797 167.255 260.943 162.37 245.765C138.933 258.512 115.403 273.68 96.5832 292.79C92.0237 279.46 88.7902 265.642 86.4058 251.778C72.6692 266.899 60.468 285.544 61.3868 306.794C61.2473 304.631 61.1193 302.456 61.003 300.292"/>
</mask>
<path d="M61.003 300.281C60.7704 278.6 74.0534 259.838 88.197 244.555C90.5117 258.431 93.6521 272.028 97.7812 285.485C117.671 266.538 141.085 251.336 165.243 238.437C169.977 253.546 175.537 268.446 181.806 282.996C206.185 269.934 231.53 258.617 257.363 248.754C260.992 247.37 264.633 246.02 268.285 244.694C262.609 230.388 257.351 215.907 252.629 201.251C290.256 188.724 329.5 179.419 369.07 175.977C369.524 177.349 369.989 178.722 370.466 180.082C332.746 183.781 295.456 192.516 259.457 204.241C264.295 218.908 269.669 233.4 275.45 247.73C252.838 255.86 230.599 265.038 208.919 275.401C198.997 280.147 189.192 285.125 179.538 290.406C173.152 275.797 167.255 260.943 162.37 245.765C138.933 258.512 115.403 273.68 96.5832 292.79C92.0237 279.46 88.7902 265.642 86.4058 251.778C72.6692 266.899 60.468 285.544 61.3868 306.794C61.2473 304.631 61.1193 302.456 61.003 300.292" fill="#1A090D"/>
<path d="M88.197 244.555L91.1562 244.061L90.1497 238.028L85.9952 242.517L88.197 244.555ZM97.7812 285.485L94.9132 286.365L96.3367 291.005L99.8505 287.658L97.7812 285.485ZM165.243 238.437L168.106 237.54L167.023 234.085L163.83 235.79L165.243 238.437ZM181.806 282.996L179.051 284.183L180.343 287.183L183.223 285.641L181.806 282.996ZM257.363 248.754L256.294 245.951L256.293 245.951L257.363 248.754ZM268.285 244.694L269.309 247.514L272.213 246.46L271.073 243.588L268.285 244.694ZM252.629 201.251L251.681 198.405L248.862 199.344L249.774 202.172L252.629 201.251ZM369.07 175.977L371.919 175.035L371.174 172.782L368.81 172.988L369.07 175.977ZM370.466 180.082L370.759 183.068L374.56 182.695L373.297 179.09L370.466 180.082ZM259.457 204.241L258.528 201.388L255.664 202.321L256.608 205.181L259.457 204.241ZM275.45 247.73L276.465 250.553L279.398 249.499L278.232 246.608L275.45 247.73ZM208.919 275.401L207.625 272.694L207.624 272.695L208.919 275.401ZM179.538 290.406L176.789 291.607L178.102 294.611L180.977 293.038L179.538 290.406ZM162.37 245.765L165.226 244.845L164.117 241.399L160.937 243.129L162.37 245.765ZM96.5832 292.79L93.7447 293.761L95.3154 298.353L98.7207 294.895L96.5832 292.79ZM86.4058 251.778L89.3624 251.269L88.3202 245.209L84.1853 249.761L86.4058 251.778ZM61.3868 306.794L58.3931 306.987L64.384 306.664L61.3868 306.794ZM64.0028 300.248C63.7834 279.8 76.3356 261.789 90.3989 246.592L85.9952 242.517C71.7711 257.888 57.7573 277.399 58.0032 300.313L64.0028 300.248ZM85.2379 245.048C87.5729 259.046 90.7427 272.773 94.9132 286.365L100.649 284.605C96.5616 271.283 93.4505 257.816 91.1562 244.061L85.2379 245.048ZM99.8505 287.658C119.477 268.961 142.639 253.907 166.656 241.083L163.83 235.79C139.53 248.765 115.865 264.115 95.712 283.313L99.8505 287.658ZM162.38 239.334C167.146 254.545 172.742 269.541 179.051 284.183L184.561 281.809C178.331 267.35 172.808 252.547 168.106 237.54L162.38 239.334ZM183.223 285.641C207.476 272.646 232.703 261.381 258.433 251.556L256.293 245.951C230.357 255.854 204.895 267.222 180.389 280.352L183.223 285.641ZM258.432 251.557C262.044 250.179 265.669 248.836 269.309 247.514L267.261 241.875C263.596 243.205 259.94 244.56 256.294 245.951L258.432 251.557ZM271.073 243.588C265.419 229.336 260.184 214.917 255.484 200.331L249.774 202.172C254.518 216.896 259.799 231.44 265.496 245.801L271.073 243.588ZM253.577 204.098C291.04 191.626 330.049 182.383 369.33 178.965L368.81 172.988C328.952 176.456 289.473 185.823 251.681 198.405L253.577 204.098ZM366.222 176.918C366.68 178.305 367.151 179.694 367.635 181.075L373.297 179.09C372.827 177.749 372.368 176.393 371.919 175.035L366.222 176.918ZM370.173 177.097C332.191 180.821 294.685 189.612 258.528 201.388L260.386 207.093C296.226 195.42 333.3 186.741 370.759 183.068L370.173 177.097ZM256.608 205.181C261.469 219.917 266.866 234.47 272.668 248.853L278.232 246.608C272.472 232.33 267.121 217.899 262.306 203.301L256.608 205.181ZM274.435 244.907C251.737 253.069 229.404 262.284 207.625 272.694L210.212 278.108C231.795 267.791 253.94 258.652 276.465 250.553L274.435 244.907ZM207.624 272.695C197.66 277.461 187.806 282.464 178.098 287.774L180.977 293.038C190.578 287.786 200.334 282.833 210.213 278.107L207.624 272.695ZM182.287 289.204C175.927 274.655 170.071 259.9 165.226 244.845L159.514 246.684C164.439 261.987 170.377 276.938 176.789 291.607L182.287 289.204ZM160.937 243.129C137.389 255.937 113.565 271.27 94.4457 290.685L98.7207 294.895C117.24 276.089 140.476 261.088 163.803 248.4L160.937 243.129ZM99.4218 291.819C94.9261 278.676 91.7271 265.019 89.3624 251.269L83.4492 252.286C85.8534 266.266 89.1214 280.245 93.7447 293.761L99.4218 291.819ZM84.1853 249.761C70.3188 265.024 57.4174 284.439 58.3896 306.924L64.384 306.664C63.5185 286.648 75.0197 268.773 88.6263 253.795L84.1853 249.761ZM64.3806 306.601C64.2418 304.449 64.1145 302.284 63.9987 300.131L58.0073 300.453C58.1242 302.627 58.2528 304.812 58.3931 306.987L64.3806 306.601Z" fill="#1A090D" mask="url(#path-8-outside-1_4975_141)"/>
<path d="M153.751 298.934L153.751 298.934L153.754 298.941C155.433 302.906 154.668 307.469 151.435 309.988C149.823 310.872 148.198 310.841 146.772 310.199C145.362 309.564 144.103 308.305 143.33 306.636V306.629L143.206 306.344C141.497 302.401 142.248 297.706 145.495 295.189C147.134 294.323 148.765 294.374 150.189 295.033C151.674 295.721 152.988 297.103 153.751 298.934ZM160.545 295.337L160.54 295.338C158.077 289.457 151.907 284.455 144.827 286.346L144.792 286.356L144.756 286.367C143.735 286.694 142.747 287.146 141.828 287.754L141.818 287.76L141.809 287.766C134.638 292.665 133.635 302.924 136.857 310.037L136.858 310.038C138.403 313.439 141.111 316.414 144.4 317.995C147.74 319.599 151.678 319.752 155.413 317.44L155.443 317.421L155.472 317.402C162.731 312.427 163.547 302.547 160.545 295.337Z" fill="#1A090D" stroke="#1A090D" stroke-width="3"/>
<path d="M88.7807 359.124L88.7543 359.051L88.7206 358.981C87.1105 355.65 86.1273 352.067 87.0827 348.918C88.6147 349.573 89.8479 350.898 90.5048 352.62L90.5271 352.678L90.5543 352.735C92.139 356.033 92.9044 359.662 91.8412 362.818C90.4658 362.067 89.3708 360.755 88.7807 359.124ZM94.835 349.226C93.9482 347.383 92.4678 344.719 90.5756 342.987C89.6206 342.112 88.43 341.353 87.04 341.189C85.5779 341.016 84.1601 341.53 82.8819 342.695L82.6335 342.921L82.5055 343.232C79.8408 349.7 82.4501 356.968 84.9901 362.355C86.5239 365.93 89.0105 370.088 93.861 370.616L94.1997 370.653L94.5211 370.54C95.4718 370.205 96.2645 369.568 96.8029 368.717L96.8682 368.614L96.916 368.502C98.2433 365.376 98.3341 361.852 97.8126 358.519C97.2894 355.176 96.1335 351.915 94.84 349.225L94.835 349.226Z" fill="#1A090D" stroke="#1A090D" stroke-width="3"/>
<path d="M140.291 305.107L139.557 303.464L138.073 304.482C120.651 316.43 102.707 330.213 90.3632 347.92L89.8589 348.644L90.2458 349.436C90.6079 350.178 90.9727 350.916 91.3356 351.651L91.3365 351.652C91.7002 352.389 92.0621 353.121 92.4209 353.856L93.5176 356.102L94.9838 354.077C107.305 337.06 124.548 323.722 141.964 311.867L143.001 311.161L142.489 310.015C142.124 309.197 141.758 308.381 141.393 307.567L141.389 307.559C141.023 306.742 140.657 305.926 140.291 305.107Z" fill="#1A090D" stroke="#1A090D" stroke-width="3"/>
<path d="M411.643 267.547L411.671 267.541L411.699 267.534C419.151 265.638 422.21 257.851 419.926 251.14L419.921 251.125L419.915 251.11C417.351 244.064 410.155 239.128 402.45 240.36L402.418 240.365L402.386 240.372C394.541 241.981 390.988 250.176 393.591 257.247L393.595 257.257L393.599 257.267C396.318 264.346 403.922 269.198 411.643 267.547ZM409.434 260.243C405.752 260.831 402.252 258.686 400.815 255.163C399.698 251.776 401.272 248.591 404.549 247.723C408.194 247.236 411.603 249.425 412.968 252.952C414.082 256.2 412.616 259.278 409.434 260.243Z" fill="#1A090D" stroke="#1A090D" stroke-width="3"/>
<path d="M420.119 287.155C423.395 286.367 426.451 288.489 427.419 291.991L427.425 292.013L427.432 292.035C427.93 293.647 427.906 295.217 427.428 296.397C426.981 297.501 426.113 298.349 424.625 298.658C421.386 299.039 418.292 297.669 416.472 294.975C415.369 291.92 416.981 288.55 420.119 287.155ZM426.845 304.802L426.872 304.798L426.899 304.794C430.675 304.141 432.939 301.829 433.985 298.921C434.997 296.107 434.861 292.797 434.122 289.895L434.117 289.878L434.113 289.861C432.161 282.89 425.571 277.52 417.802 279.519L417.741 279.535L417.682 279.555C414.337 280.721 411.565 283.437 410.033 286.618C408.497 289.808 408.126 293.655 409.903 297.045L409.923 297.083L409.946 297.121C413.426 302.916 420.428 305.674 426.845 304.802Z" fill="#1A090D" stroke="#1A090D" stroke-width="3"/>
<path d="M229.968 372.161C227.718 368.786 228.309 364.549 231.617 362.553C235.48 360.787 239.956 362.399 242.384 366.046C244.599 369.469 243.966 373.672 240.618 375.632C236.844 377.29 232.402 375.677 229.968 372.161ZM249.263 362.191C244.808 355.193 235.353 351.332 227.405 355.221L227.375 355.236L227.346 355.252C219.382 359.593 218.93 369.389 223.335 376.053L223.34 376.06L223.345 376.068C227.489 382.169 235.498 385.828 242.813 383.568V383.883L245.021 382.701C252.767 378.555 253.511 368.764 249.263 362.191Z" fill="#1A090D" stroke="#1A090D" stroke-width="3"/>
<path d="M350.586 379.931L350.56 379.813L350.609 379.914C357.578 376.481 360.555 368.188 356.585 361.302L356.574 361.284L356.563 361.265C352.219 354.206 343.128 351.996 335.796 355.124L335.773 355.134L335.75 355.144C328.494 358.533 325.301 367.277 329.742 374.309L329.752 374.325L329.762 374.34C334.311 381.17 343.354 383.26 350.586 379.931ZM336.684 370.607C334.861 367.452 336.12 363.695 339.471 362.057C343.193 360.485 347.393 361.597 349.617 364.89C351.336 368.058 350.105 371.686 346.834 373.364C343.12 375.011 338.986 373.887 336.684 370.607Z" fill="#1A090D" stroke="#1A090D" stroke-width="3"/>
<mask id="path-17-outside-2_4975_141" maskUnits="userSpaceOnUse" x="185.516" y="479.172" width="26" height="16" fill="black">
<rect fill="white" x="185.516" y="479.172" width="26" height="16"/>
<path d="M192.459 484.951C196.844 487.196 201.636 488.825 206.23 490.628C204.125 489.627 202.02 488.65 199.891 487.696C197.507 486.568 195.006 485.638 192.459 484.951ZM192.412 485.149C191.04 484.684 189.725 484.044 188.516 483.242V483.218V483.172C192.587 484.102 196.506 485.777 200.31 487.534C203.578 489.092 206.823 490.709 210.208 492C204.264 489.755 198.321 487.522 192.424 485.149H192.412Z"/>
</mask>
<path d="M192.459 484.951C196.844 487.196 201.636 488.825 206.23 490.628C204.125 489.627 202.02 488.65 199.891 487.696C197.507 486.568 195.006 485.638 192.459 484.951ZM192.412 485.149C191.04 484.684 189.725 484.044 188.516 483.242V483.218V483.172C192.587 484.102 196.506 485.777 200.31 487.534C203.578 489.092 206.823 490.709 210.208 492C204.264 489.755 198.321 487.522 192.424 485.149H192.412Z" fill="#1A090D"/>
<path d="M192.459 484.951L193.239 482.055L191.092 487.622L192.459 484.951ZM206.23 490.628L205.134 493.42L207.518 487.918L206.23 490.628ZM199.891 487.696L198.608 490.408L198.636 490.421L198.664 490.434L199.891 487.696ZM192.412 485.149L191.449 487.99L191.917 488.149H192.412V485.149ZM188.516 483.242H185.516V484.852L186.857 485.742L188.516 483.242ZM188.516 483.172L189.184 480.247L185.516 479.409V483.172H188.516ZM200.31 487.534L201.601 484.826L201.584 484.818L201.567 484.81L200.31 487.534ZM210.208 492L209.148 494.807L211.277 489.197L210.208 492ZM192.424 485.149L193.544 482.366L193.005 482.149H192.424V485.149ZM191.092 487.622C195.653 489.957 200.718 491.687 205.134 493.42L207.326 487.835C202.554 485.962 198.034 484.435 193.826 482.281L191.092 487.622ZM207.518 487.918C205.396 486.91 203.27 485.923 201.118 484.959L198.664 490.434C200.769 491.377 202.854 492.345 204.943 493.337L207.518 487.918ZM201.174 484.985C198.635 483.783 195.966 482.789 193.239 482.055L191.678 487.848C194.046 488.486 196.378 489.353 198.608 490.408L201.174 484.985ZM193.375 482.308C192.242 481.924 191.162 481.397 190.174 480.742L186.857 485.742C188.288 486.691 189.837 487.444 191.449 487.99L193.375 482.308ZM191.516 483.242V483.218H185.516V483.242H191.516ZM191.516 483.218V483.172H185.516V483.218H191.516ZM187.847 486.096C191.593 486.953 195.273 488.512 199.052 490.257L201.567 484.81C197.74 483.042 193.58 481.252 189.184 480.247L187.847 486.096ZM199.018 490.241C202.218 491.767 205.61 493.457 209.139 494.803L211.277 489.197C208.037 487.961 204.938 486.417 201.601 484.826L199.018 490.241ZM211.268 489.194C205.315 486.945 199.404 484.724 193.544 482.366L191.304 487.932C197.237 490.32 203.214 492.565 209.148 494.807L211.268 489.194ZM192.424 482.149H192.412V488.149H192.424V482.149Z" fill="#1A090D" mask="url(#path-17-outside-2_4975_141)"/>
<path d="M415.353 297.663L416.623 296.682C415.994 295.607 415.387 294.52 414.804 293.421L414.298 292.469L413.234 292.645C402.604 294.401 392.194 296.294 381.984 300.264C335.104 318.486 288.655 337.756 243.695 360.469L242.214 361.217L243.107 362.615C243.376 363.036 243.645 363.459 243.915 363.883C244.612 364.976 245.313 366.077 246.019 367.17L246.754 368.307L247.961 367.692C259.818 361.641 271.805 355.833 283.876 350.21C306.901 339.488 330.256 329.495 353.804 319.941C357.257 318.54 360.692 317.107 364.12 315.677C380.965 308.649 397.66 301.684 415.547 298.911L415.353 297.663Z" fill="#1A090D" stroke="#1A090D" stroke-width="3"/>
<path d="M226.629 477.761L227.885 477.063L227.241 475.778L227.23 475.755L227.031 475.359L226.649 475.134C215.225 468.413 204.587 459.721 194.525 450.877C200.822 446.86 207.201 443.008 213.656 439.221C253.358 415.966 294.547 395.319 336.058 375.4L337.59 374.665L336.671 373.236C335.813 371.904 334.967 370.57 334.12 369.225L333.41 368.096L332.206 368.669C318.628 375.126 305.068 381.656 291.61 388.373L291.61 388.373C255.417 406.441 219.235 425.281 185.299 447.536L183.688 448.593L185.106 449.895C195.131 459.104 205.812 467.328 217.016 474.968C214.917 476.094 212.848 477.234 210.788 478.368C206.379 480.797 202.009 483.204 197.47 485.406L194.614 486.791L197.498 488.118C198.821 488.727 200.159 489.326 201.499 489.901L202.056 490.141L202.623 489.926C209.76 487.219 216.74 483.303 223.368 479.585C224.465 478.969 225.552 478.359 226.629 477.761Z" fill="#1A090D" stroke="#1A090D" stroke-width="3"/>
<mask id="path-21-outside-3_4975_141" maskUnits="userSpaceOnUse" x="128.617" y="238.836" width="274" height="210" fill="black">
<rect fill="white" x="128.617" y="238.836" width="274" height="210"/>
<path d="M131.617 441.406C135.188 428.414 150.914 418.341 161.172 410.897C151.123 398.614 142.283 385.436 133.757 372.06C153.775 355.683 176.247 342.249 198.928 329.943C190.995 315.508 183.807 300.574 177.375 285.407C204.208 270.751 232.216 258.189 260.841 247.454C265.04 245.872 269.262 244.336 273.496 242.836C276.229 249.733 279.533 256.561 281.684 263.668C286.267 270.484 288.931 279.405 292.397 286.895C326.198 273.694 361.161 262.144 396.614 253.921C397.16 255.409 397.695 256.91 398.242 258.399C368.303 265.936 338.434 274.997 309.681 285.965C302.993 288.512 296.317 291.106 289.675 293.781C284.837 283.592 280.149 273.31 275.834 262.9C275.601 262.714 275.404 262.481 275.241 262.214C273.798 257.945 271.961 253.816 270.263 249.64C249.78 257.177 229.599 265.587 209.884 274.962C201.149 279.114 192.507 283.464 183.981 288.024C190.693 303.144 197.904 318.044 205.941 332.513C182.842 344.843 159.963 358.23 139.329 374.433C147.68 387.913 157.078 400.801 167.151 413.037C156.264 420.667 140.294 430.682 135.223 443.662C134.037 442.895 132.827 442.15 131.629 441.406"/>
</mask>
<path d="M131.617 441.406C135.188 428.414 150.914 418.341 161.172 410.897C151.123 398.614 142.283 385.436 133.757 372.06C153.775 355.683 176.247 342.249 198.928 329.943C190.995 315.508 183.807 300.574 177.375 285.407C204.208 270.751 232.216 258.189 260.841 247.454C265.04 245.872 269.262 244.336 273.496 242.836C276.229 249.733 279.533 256.561 281.684 263.668C286.267 270.484 288.931 279.405 292.397 286.895C326.198 273.694 361.161 262.144 396.614 253.921C397.16 255.409 397.695 256.91 398.242 258.399C368.303 265.936 338.434 274.997 309.681 285.965C302.993 288.512 296.317 291.106 289.675 293.781C284.837 283.592 280.149 273.31 275.834 262.9C275.601 262.714 275.404 262.481 275.241 262.214C273.798 257.945 271.961 253.816 270.263 249.64C249.78 257.177 229.599 265.587 209.884 274.962C201.149 279.114 192.507 283.464 183.981 288.024C190.693 303.144 197.904 318.044 205.941 332.513C182.842 344.843 159.963 358.23 139.329 374.433C147.68 387.913 157.078 400.801 167.151 413.037C156.264 420.667 140.294 430.682 135.223 443.662C134.037 442.895 132.827 442.15 131.629 441.406" fill="#1A090D"/>
<path d="M161.172 410.897L162.934 413.325L165.507 411.458L163.494 408.997L161.172 410.897ZM133.757 372.06L131.858 369.738L129.795 371.425L131.228 373.672L133.757 372.06ZM198.928 329.943L200.358 332.58L203.009 331.141L201.557 328.498L198.928 329.943ZM177.375 285.407L175.937 282.774L173.552 284.076L174.613 286.578L177.375 285.407ZM260.841 247.454L261.895 250.263L261.899 250.261L260.841 247.454ZM273.496 242.836L276.285 241.731L275.22 239.042L272.494 240.008L273.496 242.836ZM281.684 263.668L278.813 264.537L278.944 264.968L279.195 265.342L281.684 263.668ZM292.397 286.895L289.674 288.155L290.86 290.717L293.488 289.69L292.397 286.895ZM396.614 253.921L399.43 252.887L398.517 250.4L395.936 250.998L396.614 253.921ZM398.242 258.399L398.974 261.308L402.207 260.494L401.058 257.365L398.242 258.399ZM309.681 285.965L310.749 288.768L310.75 288.768L309.681 285.965ZM289.675 293.781L286.965 295.068L288.177 297.619L290.796 296.564L289.675 293.781ZM275.834 262.9L278.605 261.751L278.31 261.039L277.708 260.557L275.834 262.9ZM275.241 262.214L272.399 263.174L272.505 263.489L272.678 263.774L275.241 262.214ZM270.263 249.64L273.042 248.51L271.949 245.823L269.227 246.825L270.263 249.64ZM209.884 274.962L211.172 277.671L211.173 277.671L209.884 274.962ZM183.981 288.024L182.567 285.378L180.108 286.693L181.239 289.241L183.981 288.024ZM205.941 332.513L207.354 335.16L210.045 333.724L208.564 331.057L205.941 332.513ZM139.329 374.433L137.476 372.073L135.365 373.731L136.778 376.013L139.329 374.433ZM167.151 413.037L168.873 415.494L171.527 413.633L169.467 411.13L167.151 413.037ZM135.223 443.662L133.593 446.181L136.679 448.178L138.017 444.754L135.223 443.662ZM134.51 442.201C136.064 436.546 140.364 431.256 145.889 426.305C151.397 421.368 157.688 417.132 162.934 413.325L159.41 408.469C154.397 412.106 147.696 416.628 141.885 421.837C136.089 427.031 130.741 433.274 128.724 440.611L134.51 442.201ZM163.494 408.997C153.558 396.853 144.794 383.793 136.287 370.447L131.228 373.672C139.773 387.079 148.688 400.375 158.851 412.797L163.494 408.997ZM135.657 374.382C155.458 358.182 177.737 344.854 200.358 332.58L197.497 327.306C174.757 339.644 152.092 353.184 131.858 369.738L135.657 374.382ZM201.557 328.498C193.676 314.158 186.532 299.315 180.137 284.235L174.613 286.578C181.082 301.832 188.314 316.859 196.299 331.388L201.557 328.498ZM178.813 288.039C205.509 273.459 233.387 260.954 261.895 250.263L259.788 244.645C231.046 255.424 202.907 268.043 175.937 282.774L178.813 288.039ZM261.899 250.261C266.076 248.687 270.28 247.159 274.498 245.664L272.494 240.008C268.245 241.514 264.004 243.056 259.784 244.646L261.899 250.261ZM270.707 243.941C273.555 251.128 276.706 257.577 278.813 264.537L284.556 262.798C282.359 255.544 278.904 248.339 276.285 241.731L270.707 243.941ZM279.195 265.342C281.315 268.494 283.035 272.204 284.69 276.181C286.299 280.05 287.912 284.347 289.674 288.155L295.12 285.636C293.416 281.953 291.964 278.044 290.229 273.876C288.54 269.816 286.637 265.657 284.174 261.994L279.195 265.342ZM293.488 289.69C327.192 276.526 362.015 265.026 397.291 256.843L395.936 250.998C360.308 259.262 325.203 270.862 291.306 284.101L293.488 289.69ZM393.797 254.955C394.068 255.691 394.336 256.432 394.607 257.18C394.877 257.927 395.15 258.681 395.426 259.433L401.058 257.365C400.788 256.628 400.52 255.887 400.249 255.139C399.979 254.393 399.706 253.639 399.43 252.887L393.797 254.955ZM397.51 255.489C367.479 263.05 337.494 272.144 308.612 283.162L310.75 288.768C339.373 277.849 369.127 268.822 398.974 261.308L397.51 255.489ZM308.613 283.161C301.913 285.713 295.218 288.314 288.554 290.998L290.796 296.564C297.415 293.898 304.073 291.311 310.749 288.768L308.613 283.161ZM292.385 292.494C287.559 282.332 282.895 272.099 278.605 261.751L273.063 264.049C277.404 274.521 282.114 284.852 286.965 295.068L292.385 292.494ZM277.708 260.557C277.782 260.616 277.807 260.661 277.803 260.654L272.678 263.774C273 264.302 273.421 264.811 273.96 265.243L277.708 260.557ZM278.083 261.253C276.602 256.87 274.691 252.565 273.042 248.51L267.484 250.77C269.231 255.067 270.995 259.02 272.399 263.174L278.083 261.253ZM269.227 246.825C248.665 254.391 228.4 262.835 208.596 272.252L211.173 277.671C230.799 268.338 250.895 259.964 271.299 252.456L269.227 246.825ZM208.596 272.252C199.82 276.424 191.136 280.795 182.567 285.378L185.396 290.669C193.878 286.133 202.478 281.804 211.172 277.671L208.596 272.252ZM181.239 289.241C187.977 304.42 195.228 319.404 203.319 333.97L208.564 331.057C200.581 316.684 193.409 301.868 186.723 286.807L181.239 289.241ZM204.529 329.867C181.373 342.226 158.314 355.71 137.476 372.073L141.182 376.792C161.611 360.75 184.31 347.459 207.354 335.16L204.529 329.867ZM136.778 376.013C145.209 389.621 154.688 402.617 164.835 414.944L169.467 411.13C159.469 398.984 150.151 386.206 141.879 372.853L136.778 376.013ZM165.429 410.58C160.087 414.324 153.191 418.858 147.065 424.056C140.95 429.244 135.236 435.385 132.429 442.571L138.017 444.754C140.281 438.959 145.087 433.603 150.947 428.631C156.795 423.669 163.328 419.38 168.873 415.494L165.429 410.58ZM136.853 441.144C135.637 440.357 134.394 439.592 133.212 438.858L130.046 443.954C131.259 444.708 132.436 445.433 133.593 446.181L136.853 441.144Z" fill="#1A090D" mask="url(#path-21-outside-3_4975_141)"/>
<path d="M592.6 153H621.4V377H592.6V153ZM669.4 217H695V241H695.32C698.52 235.88 702.68 231.4 707.8 227.56C712.067 224.147 717.613 221.053 724.44 218.28C731.48 215.293 739.8 213.8 749.4 213.8C759 213.8 767.747 215.4 775.64 218.6C783.533 221.587 790.253 226.067 795.8 232.04C801.347 238.013 805.613 245.267 808.6 253.8C811.8 262.12 813.4 271.72 813.4 282.6V377H787.8V284.2C787.8 268.2 783.747 256.467 775.64 249C767.747 241.533 757.4 237.8 744.6 237.8C737.347 237.8 730.627 239.08 724.44 241.64C718.467 243.987 713.24 247.507 708.76 252.2C704.493 256.893 701.08 262.547 698.52 269.16C696.173 275.56 695 282.707 695 290.6V377H669.4V217ZM862.988 241H842.188V217H862.988V181.8H888.588V217H939.788V241H888.588V353H941.388V377H862.988V241ZM1045.46 380.2C1033.94 380.2 1023.17 378.173 1013.14 374.12C1003.12 369.853 994.476 364.093 987.223 356.84C979.969 349.373 974.209 340.52 969.943 330.28C965.889 320.04 963.863 308.947 963.863 297C963.863 285.053 965.889 273.96 969.943 263.72C974.209 253.48 979.969 244.733 987.223 237.48C994.476 230.013 1003.12 224.253 1013.14 220.2C1023.17 215.933 1033.94 213.8 1045.46 213.8C1056.98 213.8 1067.76 215.933 1077.78 220.2C1087.81 224.253 1096.45 229.907 1103.7 237.16C1110.96 244.413 1116.61 253.053 1120.66 263.08C1124.93 273.107 1127.06 283.88 1127.06 295.4V305H989.463C990.316 312.467 992.343 319.4 995.543 325.8C998.743 331.987 1002.8 337.32 1007.7 341.8C1012.61 346.28 1018.26 349.8 1024.66 352.36C1031.28 354.92 1038.21 356.2 1045.46 356.2C1055.06 356.2 1063.17 354.707 1069.78 351.72C1076.4 348.733 1081.84 345.427 1086.1 341.8C1091.01 337.747 1095.06 332.947 1098.26 327.4H1123.86C1120.02 337.427 1114.58 346.28 1107.54 353.96C1101.36 360.573 1093.25 366.653 1083.22 372.2C1073.2 377.533 1060.61 380.2 1045.46 380.2ZM1099.86 282.6C1099.01 276.627 1097.09 270.973 1094.1 265.64C1091.33 260.093 1087.6 255.293 1082.9 251.24C1078.21 247.187 1072.66 243.987 1066.26 241.64C1060.08 239.08 1053.14 237.8 1045.46 237.8C1037.78 237.8 1030.74 239.08 1024.34 241.64C1018.16 243.987 1012.61 247.187 1007.7 251.24C1003.01 255.293 999.169 260.093 996.183 265.64C993.196 270.973 991.169 276.627 990.103 282.6H1099.86ZM1162.21 217H1187.81V242.6H1188.13C1190.91 237.48 1194.53 233 1199.01 229.16C1202.85 225.747 1207.87 222.653 1214.05 219.88C1220.24 216.893 1228.03 215.4 1237.41 215.4H1256.61V241H1237.41C1230.16 241 1223.44 242.28 1217.25 244.84C1211.28 247.187 1206.05 250.6 1201.57 255.08C1197.31 259.347 1193.89 264.573 1191.33 270.76C1188.99 276.733 1187.81 283.347 1187.81 290.6V377H1162.21V217Z" fill="#1A090D"/>
<path d="M1354.18 380.2C1342.87 380.2 1332.31 378.173 1322.5 374.12C1312.9 369.853 1304.47 364.093 1297.22 356.84C1290.18 349.373 1284.52 340.52 1280.26 330.28C1276.2 320.04 1274.18 308.947 1274.18 297C1274.18 285.053 1276.2 273.96 1280.26 263.72C1284.52 253.48 1290.18 244.733 1297.22 237.48C1304.47 230.013 1312.9 224.253 1322.5 220.2C1332.31 215.933 1342.87 213.8 1354.18 213.8C1362.07 213.8 1369.22 214.653 1375.62 216.36C1382.23 217.853 1388.1 219.987 1393.22 222.76C1398.34 225.32 1402.82 228.307 1406.66 231.72C1410.5 235.133 1413.8 238.547 1416.58 241.96C1423.19 250.28 1427.99 259.56 1430.98 269.8H1405.38C1402.82 263.827 1399.3 258.493 1394.82 253.8C1390.98 249.747 1385.75 246.12 1379.14 242.92C1372.52 239.507 1364.2 237.8 1354.18 237.8C1346.5 237.8 1339.35 239.293 1332.74 242.28C1326.12 245.053 1320.36 249.107 1315.46 254.44C1310.55 259.56 1306.71 265.747 1303.94 273C1301.16 280.253 1299.78 288.253 1299.78 297C1299.78 305.96 1301.27 314.067 1304.26 321.32C1307.24 328.573 1311.19 334.76 1316.1 339.88C1321 345 1326.76 349.053 1333.38 352.04C1339.99 354.813 1346.92 356.2 1354.18 356.2C1364.63 356.2 1373.16 354.387 1379.78 350.76C1386.6 347.133 1392.04 343.08 1396.1 338.6C1400.79 333.48 1404.42 327.613 1406.98 321H1432.58C1429.59 332.307 1424.68 342.227 1417.86 350.76C1414.87 354.387 1411.46 358.013 1407.62 361.64C1403.78 365.053 1399.19 368.147 1393.86 370.92C1388.74 373.693 1382.87 375.933 1376.26 377.64C1369.64 379.347 1362.28 380.2 1354.18 380.2ZM1538.31 380.2C1526.37 380.2 1515.27 378.173 1505.03 374.12C1494.79 369.853 1485.94 364.093 1478.47 356.84C1471.22 349.373 1465.46 340.52 1461.19 330.28C1457.14 320.04 1455.11 308.947 1455.11 297C1455.11 285.053 1457.14 273.96 1461.19 263.72C1465.46 253.48 1471.22 244.733 1478.47 237.48C1485.94 230.013 1494.79 224.253 1505.03 220.2C1515.27 215.933 1526.37 213.8 1538.31 213.8C1550.26 213.8 1561.35 215.933 1571.59 220.2C1581.83 224.253 1590.58 230.013 1597.83 237.48C1605.3 244.733 1611.06 253.48 1615.11 263.72C1619.38 273.96 1621.51 285.053 1621.51 297C1621.51 308.947 1619.38 320.04 1615.11 330.28C1611.06 340.52 1605.3 349.373 1597.83 356.84C1590.58 364.093 1581.83 369.853 1571.59 374.12C1561.35 378.173 1550.26 380.2 1538.31 380.2ZM1538.31 356.2C1546.63 356.2 1554.31 354.813 1561.35 352.04C1568.39 349.053 1574.47 345 1579.59 339.88C1584.71 334.547 1588.66 328.253 1591.43 321C1594.42 313.747 1595.91 305.747 1595.91 297C1595.91 288.253 1594.42 280.253 1591.43 273C1588.66 265.747 1584.71 259.56 1579.59 254.44C1574.47 249.107 1568.39 245.053 1561.35 242.28C1554.31 239.293 1546.63 237.8 1538.31 237.8C1529.99 237.8 1522.31 239.293 1515.27 242.28C1508.23 245.053 1502.15 249.107 1497.03 254.44C1491.91 259.56 1487.86 265.747 1484.87 273C1482.1 280.253 1480.71 288.253 1480.71 297C1480.71 305.747 1482.1 313.747 1484.87 321C1487.86 328.253 1491.91 334.547 1497.03 339.88C1502.15 345 1508.23 349.053 1515.27 352.04C1522.31 354.813 1529.99 356.2 1538.31 356.2ZM1669.39 413.8H1781.39V351.4H1781.07C1781.07 351.4 1780 353 1777.87 356.2C1775.95 359.187 1772.64 362.493 1767.95 366.12C1763.47 369.533 1757.6 372.733 1750.35 375.72C1743.09 378.707 1734.24 380.2 1723.79 380.2C1713.33 380.2 1703.41 378.173 1694.03 374.12C1684.85 369.853 1676.75 364.093 1669.71 356.84C1662.67 349.373 1657.12 340.52 1653.07 330.28C1649.01 320.04 1646.99 308.947 1646.99 297C1646.99 285.053 1649.01 273.96 1653.07 263.72C1657.12 253.48 1662.67 244.733 1669.71 237.48C1676.75 230.013 1684.85 224.253 1694.03 220.2C1703.41 215.933 1713.33 213.8 1723.79 213.8C1734.24 213.8 1743.09 215.293 1750.35 218.28C1757.6 221.267 1763.47 224.573 1767.95 228.2C1772.64 231.613 1775.95 234.92 1777.87 238.12C1780 241.107 1781.07 242.6 1781.07 242.6H1781.39V217H1806.99V437.8H1669.39V413.8ZM1726.99 356.2C1734.67 356.2 1741.81 354.813 1748.43 352.04C1755.04 349.053 1760.8 345 1765.71 339.88C1770.61 334.547 1774.45 328.253 1777.23 321C1780 313.747 1781.39 305.747 1781.39 297C1781.39 288.253 1780 280.253 1777.23 273C1774.45 265.747 1770.61 259.56 1765.71 254.44C1760.8 249.107 1755.04 245.053 1748.43 242.28C1741.81 239.293 1734.67 237.8 1726.99 237.8C1719.31 237.8 1712.16 239.293 1705.55 242.28C1698.93 245.053 1693.17 249.107 1688.27 254.44C1683.36 259.56 1679.52 265.747 1676.75 273C1673.97 280.253 1672.59 288.253 1672.59 297C1672.59 305.747 1673.97 313.747 1676.75 321C1679.52 328.253 1683.36 334.547 1688.27 339.88C1693.17 345 1698.93 349.053 1705.55 352.04C1712.16 354.813 1719.31 356.2 1726.99 356.2ZM1851.9 217H1877.5V241H1877.82C1881.02 235.88 1885.18 231.4 1890.3 227.56C1894.57 224.147 1900.11 221.053 1906.94 218.28C1913.98 215.293 1922.3 213.8 1931.9 213.8C1941.5 213.8 1950.25 215.4 1958.14 218.6C1966.03 221.587 1972.75 226.067 1978.3 232.04C1983.85 238.013 1988.11 245.267 1991.1 253.8C1994.3 262.12 1995.9 271.72 1995.9 282.6V377H1970.3V284.2C1970.3 268.2 1966.25 256.467 1958.14 249C1950.25 241.533 1939.9 237.8 1927.1 237.8C1919.85 237.8 1913.13 239.08 1906.94 241.64C1900.97 243.987 1895.74 247.507 1891.26 252.2C1886.99 256.893 1883.58 262.547 1881.02 269.16C1878.67 275.56 1877.5 282.707 1877.5 290.6V377H1851.9V217ZM2039.09 217H2064.69V377H2039.09V217ZM2051.89 186.6C2046.98 186.6 2042.82 184.893 2039.41 181.48C2035.99 178.067 2034.29 173.907 2034.29 169C2034.29 164.093 2035.99 159.933 2039.41 156.52C2042.82 153.107 2046.98 151.4 2051.89 151.4C2056.79 151.4 2060.95 153.107 2064.37 156.52C2067.78 159.933 2069.49 164.093 2069.49 169C2069.49 173.907 2067.78 178.067 2064.37 181.48C2060.95 184.893 2056.79 186.6 2051.89 186.6ZM2115.8 241H2095V217H2115.8V181.8H2141.4V217H2192.6V241H2141.4V353H2194.2V377H2115.8V241ZM2226.28 217H2251.88V377H2226.28V217ZM2239.08 186.6C2234.17 186.6 2230.01 184.893 2226.6 181.48C2223.18 178.067 2221.48 173.907 2221.48 169C2221.48 164.093 2223.18 159.933 2226.6 156.52C2230.01 153.107 2234.17 151.4 2239.08 151.4C2243.98 151.4 2248.14 153.107 2251.56 156.52C2254.97 159.933 2256.68 164.093 2256.68 169C2256.68 173.907 2254.97 178.067 2251.56 181.48C2248.14 184.893 2243.98 186.6 2239.08 186.6ZM2280.59 217H2307.79L2344.59 353H2371.79L2408.59 217H2435.79L2390.99 377H2325.39L2280.59 217ZM2536.71 380.2C2525.19 380.2 2514.42 378.173 2504.39 374.12C2494.37 369.853 2485.73 364.093 2478.47 356.84C2471.22 349.373 2465.46 340.52 2461.19 330.28C2457.14 320.04 2455.11 308.947 2455.11 297C2455.11 285.053 2457.14 273.96 2461.19 263.72C2465.46 253.48 2471.22 244.733 2478.47 237.48C2485.73 230.013 2494.37 224.253 2504.39 220.2C2514.42 215.933 2525.19 213.8 2536.71 213.8C2548.23 213.8 2559.01 215.933 2569.03 220.2C2579.06 224.253 2587.7 229.907 2594.95 237.16C2602.21 244.413 2607.86 253.053 2611.91 263.08C2616.18 273.107 2618.31 283.88 2618.31 295.4V305H2480.71C2481.57 312.467 2483.59 319.4 2486.79 325.8C2489.99 331.987 2494.05 337.32 2498.95 341.8C2503.86 346.28 2509.51 349.8 2515.91 352.36C2522.53 354.92 2529.46 356.2 2536.71 356.2C2546.31 356.2 2554.42 354.707 2561.03 351.72C2567.65 348.733 2573.09 345.427 2577.35 341.8C2582.26 337.747 2586.31 332.947 2589.51 327.4H2615.11C2611.27 337.427 2605.83 346.28 2598.79 353.96C2592.61 360.573 2584.5 366.653 2574.47 372.2C2564.45 377.533 2551.86 380.2 2536.71 380.2ZM2591.11 282.6C2590.26 276.627 2588.34 270.973 2585.35 265.64C2582.58 260.093 2578.85 255.293 2574.15 251.24C2569.46 247.187 2563.91 243.987 2557.51 241.64C2551.33 239.08 2544.39 237.8 2536.71 237.8C2529.03 237.8 2521.99 239.08 2515.59 241.64C2509.41 243.987 2503.86 247.187 2498.95 251.24C2494.26 255.293 2490.42 260.093 2487.43 265.64C2484.45 270.973 2482.42 276.627 2481.35 282.6H2591.11Z" fill="#D72638"/>
</svg>
